<?xml version="1.0" encoding="UTF-8" standalone="no"?>
<!-- Created with Inkscape (http://www.inkscape.org/) -->

<svg
   xmlns:dc="http://purl.org/dc/elements/1.1/"
   xmlns:cc="http://creativecommons.org/ns#"
   xmlns:rdf="http://www.w3.org/1999/02/22-rdf-syntax-ns#"
   xmlns:svg="http://www.w3.org/2000/svg"
   xmlns="http://www.w3.org/2000/svg"
   xmlns:sodipodi="http://sodipodi.sourceforge.net/DTD/sodipodi-0.dtd"
   xmlns:inkscape="http://www.inkscape.org/namespaces/inkscape"
   version="1.1"
   id="svg3843"
   width="960"
   height="384"
   viewBox="0 0 960 384"
   sodipodi:docname="branding iron.svg"
   inkscape:version="0.92.2 5c3e80d, 2017-08-06">
  <metadata
     id="metadata3849">
    <rdf:RDF>
      <cc:Work
         rdf:about="">
        <dc:format>image/svg+xml</dc:format>
        <dc:type
           rdf:resource="http://purl.org/dc/dcmitype/StillImage" />
        <dc:title></dc:title>
      </cc:Work>
    </rdf:RDF>
  </metadata>
  <defs
     id="defs3847" />
  <sodipodi:namedview
     pagecolor="#ffffff"
     bordercolor="#666666"
     borderopacity="1"
     objecttolerance="10"
     gridtolerance="10"
     guidetolerance="10"
     inkscape:pageopacity="0"
     inkscape:pageshadow="2"
     inkscape:window-width="1443"
     inkscape:window-height="857"
     id="namedview3845"
     showgrid="false"
     inkscape:zoom="0.675"
     inkscape:cx="829.82524"
     inkscape:cy="105.42601"
     inkscape:window-x="0"
     inkscape:window-y="0"
     inkscape:window-maximized="0"
     inkscape:current-layer="svg3843" />
  <path
     style="fill:#000000;stroke-width:0.31999999"
     d="m 366.4,380.06135 c -2.80653,-0.51216 -7.14202,-1.57491 -8.64,-2.11789 -0.968,-0.35085 -3.2,-1.60237 -4.96,-2.78109 -5.90522,-3.95494 -12.45517,-8.41862 -15.52,-10.57661 -1.672,-1.17728 -4.696,-3.26473 -6.72,-4.63881 -12.20345,-8.28487 -17.86144,-12.20426 -18.61586,-12.89549 -0.93819,-0.85965 -0.89732,-1.51418 0.11101,-1.77786 2.37591,-0.62131 21.11928,2.00218 31.46485,4.4041 4.09318,0.9503 5.19318,1.00826 6.1688,0.3249 0.52915,-0.37063 0.7112,-0.81908 0.7112,-1.75178 0,-1.06925 -0.27606,-1.57254 -1.87693,-3.42186 -2.57133,-2.9704 -13.43376,-13.58278 -18.16262,-17.74451 -2.13376,-1.87785 -6.20032,-5.16304 -9.03683,-7.30037 -2.8365,-2.13735 -5.3747,-4.1965 -5.64044,-4.57591 -0.6367,-0.90902 -0.61428,-2.29062 0.0479,-2.95282 0.85094,-0.85094 3.02526,-2.13624 4.12974,-2.4412 1.21666,-0.33593 6.82716,-3.35016 9.73916,-5.23233 1.144,-0.73943 3.016,-1.89765 4.16,-2.57382 1.144,-0.67618 2.8,-1.74723 3.68,-2.38012 2.32883,-1.67487 5.26317,-3.34859 6.89562,-3.93319 0.78339,-0.28055 2.43238,-0.88864 3.66438,-1.3513 1.232,-0.46267 2.98029,-1.04892 3.88509,-1.30279 0.90477,-0.25387 2.05677,-0.6763 2.56,-0.93875 0.5032,-0.26244 1.08317,-0.47805 1.28883,-0.47914 0.20563,-9.6e-4 1.93363,-0.48855 3.84,-1.08325 2.97814,-0.92906 10.6648,-2.88234 20.90608,-5.31251 1.496,-0.35498 3.728,-0.73906 4.96,-0.85349 1.232,-0.11443 2.816,-0.40966 3.52,-0.65606 0.704,-0.24639 2.864,-0.58986 4.8,-0.76325 1.936,-0.17339 5.248,-0.59532 7.36,-0.93762 10.86269,-1.76057 48.67526,-1.85314 73.49059,-0.17991 8.45008,0.56976 15.51603,0.65304 16.71552,0.19701 0.87002,-0.33079 1.35031,-1.01133 4.18704,-5.93289 1.01443,-1.76 2.24042,-3.776 2.72439,-4.48 0.48396,-0.704 1.41728,-2.34975 2.07404,-3.65723 0.65677,-1.30748 1.73984,-3.10748 2.40688,-4 0.66701,-0.89252 1.72,-2.63077 2.33994,-3.86277 2.11171,-4.19654 5.7744,-9.89645 6.57046,-10.22505 0.23591,-0.0974 0.81191,0.0661 1.28,0.36318 0.93533,0.59365 5.23744,5.18607 7.83674,8.36557 3.17856,3.88805 4.47296,5.36384 8.04861,9.1763 3.5816,3.81883 6.96281,7.64998 9.17856,10.4 0.63814,0.792 2.99705,3.384 5.24205,5.76 2.24496,2.376 4.85753,5.27872 5.80569,6.4505 2.61104,3.22685 5.45786,4.29612 8.41949,3.16234 3.47786,-1.33139 5.6497,-2.40201 7.79149,-3.84082 1.31977,-0.88661 2.4967,-1.61202 2.61539,-1.61202 0.11869,0 2.1097,-1.11908 4.42445,-2.48684 4.56016,-2.69454 5.30713,-3.12191 7.72867,-4.4218 0.88,-0.47239 2.32,-1.31736 3.2,-1.87771 0.88,-0.56035 2.896,-1.71661 4.48,-2.56947 3.79549,-2.04358 5.39616,-2.92817 8.25898,-4.56418 1.30889,-0.748 2.65564,-1.36 2.99276,-1.36 0.33712,0 1.1834,-0.29196 1.88061,-0.64879 0.69722,-0.35684 1.98765,-0.85136 2.86765,-1.09895 0.88,-0.24758 2.248,-0.6739 3.04,-0.94738 7.03229,-2.42823 7.16954,-2.0937 1.40189,3.41672 -7.32723,7.00046 -9.09795,8.63739 -11.00189,10.17068 -0.968,0.77955 -2.5943,2.24518 -3.61402,3.25696 -1.01974,1.01177 -2.38774,2.23176 -3.04,2.71109 -2.59168,1.90444 -6.45964,6.00453 -7.2607,7.6964 -1.48893,3.14466 -0.99386,3.92207 2.87472,4.51415 1.232,0.18855 3.44979,0.56532 4.92838,0.83727 2.66276,0.48974 2.70397,0.48719 4.32,-0.26708 0.89741,-0.41885 3.00388,-1.82343 4.68112,-3.12131 4.43178,-3.42941 5.93895,-4.43976 6.62295,-4.43976 0.76649,0 1.64294,0.9538 4.55769,4.96 4.2274,5.81033 4.49181,5.95915 11.6273,6.5441 8.08538,0.66282 8.37104,0.57925 14.56794,-4.26189 2.46556,-1.92615 4.23081,-3.08221 4.70636,-3.08221 0.79933,0 0.83434,0.0384 4.37101,4.7905 2.69805,3.62529 2.74311,3.63817 11.77725,3.3664 3.784,-0.11382 7.4665,-0.35037 8.18333,-0.52565 1.16342,-0.28448 6.05664,-3.60438 8.03894,-5.45418 1.03667,-0.96738 2.04131,-0.54781 3.58547,1.49739 1.94356,2.57422 2.49594,2.85614 5.11876,2.61237 4.763,-0.44267 17.7975,-4.47824 21.3135,-6.5988 0.528,-0.31845 1.41805,-0.67578 1.97789,-0.79408 0.55984,-0.1183 1.18947,-0.42183 1.39917,-0.67452 0.20972,-0.25269 0.54368,-0.46395 0.74211,-0.46947 1.09494,-0.0305 9.10438,-4.67975 12.63174,-7.33238 4.66103,-3.50516 11.2352,-10.30137 13.94781,-14.41884 2.57766,-3.91268 6.28227,-12.1329 6.76291,-15.00638 0.10599,-0.6338 0.39651,-2.19029 0.64554,-3.45887 1.26541,-6.44557 -0.52448,-14.21222 -4.68003,-20.30767 -4.01047,-5.8826 -10.90077,-9.86582 -17.06621,-9.86582 -2.7288,0 -6.13299,0.96505 -8.54848,2.4234 -2.94301,1.77681 -7.57082,6.89115 -9.53427,10.5366 -0.3792,0.704 -1.18135,1.928 -1.78256,2.72 -0.60122,0.792 -1.10269,1.56775 -1.11437,1.72389 -0.0497,0.66383 -2.98205,4.69473 -4.9889,6.85787 -2.74851,2.96257 -10.1184,8.6779 -11.22547,8.70536 -0.15779,0.004 -0.64688,0.28871 -1.08688,0.63288 -0.44,0.34417 -0.98893,0.62897 -1.21981,0.63288 -0.23091,0.004 -1.16998,0.362 -2.08685,0.79574 -5.86992,2.77692 -14.86982,2.97256 -19.85065,0.43152 -2.16858,-1.10631 -4.51309,-3.58966 -5.46538,-5.78898 -1.42931,-3.30108 -1.51725,-3.43116 -2.32,-3.43116 -0.47021,0 -1.80627,0.88388 -3.54592,2.34583 -3.57353,3.00313 -4.85165,3.76365 -11.11139,6.61167 -5.95203,2.70802 -14.86109,2.74079 -19.78218,0.0728 -1.87148,-1.01466 -5.16688,-4.45553 -5.47392,-5.71558 -0.27916,-1.14583 -1.67756,-3.31468 -2.13715,-3.31468 -0.18931,0 -1.15926,0.72889 -2.15545,1.61975 -1.86634,1.66898 -6.745,5.09474 -7.27344,5.10737 -0.16381,0.004 -0.65786,0.28871 -1.09786,0.63288 -0.44,0.34417 -1.01814,0.62897 -1.28474,0.63288 -0.26662,0.004 -1.0128,0.29014 -1.65817,0.63605 -0.64541,0.34591 -2.65927,1.02423 -4.47527,1.50739 -7.25075,1.92909 -15.21683,0.62777 -18.82182,-3.07469 -1.1569,-1.18816 -2.42822,-3.19451 -2.92134,-4.61033 -0.75088,-2.15572 -1.77146,-2.16695 -4.11866,-0.0453 -0.96733,0.87438 -5.22621,3.70746 -6.56,4.36385 -0.528,0.25985 -1.248,0.63401 -1.6,0.83148 -2.87341,1.61194 -7.53664,3.04759 -11.21779,3.45358 -3.79872,0.41895 -9.23888,-0.89322 -12.53463,-3.02336 -2.70448,-1.74798 -4.06614,-3.33502 -5.65555,-6.59152 -3.52649,-7.2253 -3.28813,-17.29353 0.67424,-28.48 1.24605,-3.5178 4.344,-10.08251 7.24855,-15.36 7.3647,-13.38151 17.81152,-22.87445 29.99878,-27.25964 5.77635,-2.07844 8.78829,-2.66054 13.75981,-2.65926 4.03821,9.6e-4 4.42505,0.0575 6.67632,0.97488 1.31437,0.53559 3.12768,1.5431 4.02957,2.23891 0.90188,0.69581 1.86736,1.26511 2.14544,1.26511 0.29433,0 0.66044,-0.46907 0.87606,-1.12246 0.20374,-0.61735 0.68291,-1.30135 1.06483,-1.52 0.89626,-0.51313 19.69811,-0.68627 21.25437,-0.19573 1.57802,0.49741 1.60662,0.36605 -1.90774,8.75819 -0.36852,0.88 -1.08004,2.49093 -1.58116,3.57984 -0.50112,1.08891 -0.91206,2.16891 -0.91321,2.4 0,0.23109 -0.28819,0.85216 -0.63789,1.38016 -0.3497,0.528 -0.63805,1.176 -0.64083,1.44 -0.003,0.264 -0.3592,1.2 -0.7921,2.08 -0.43286,0.88 -0.79155,1.81996 -0.79705,2.0888 -0.005,0.26884 -0.20749,0.77284 -0.44884,1.12 -0.40764,0.58635 -7.09478,16.9686 -8.095,19.8312 -0.24596,0.704 -0.65236,1.712 -0.90308,2.24 -0.25072,0.528 -0.9726,2.184 -1.60419,3.68 -0.63158,1.496 -1.50173,3.45439 -1.93363,4.35197 -0.4319,0.89759 -0.78528,1.80332 -0.78528,2.01275 0,0.20943 -0.29398,0.95702 -0.65328,1.66131 -0.3593,0.7043 -0.73958,2.20487 -0.84509,3.3346 -0.22877,2.44986 0.20797,3.33455 2.13031,4.31525 2.86025,1.45919 6.5431,0.51945 12.06272,-3.07801 3.62329,-2.36151 6.87913,-7.33952 10.01859,-15.31787 0.90032,-2.288 1.91814,-4.77585 2.26185,-5.52856 0.34368,-0.75271 0.6249,-1.58644 0.6249,-1.85275 0,-0.2663 0.2841,-1.04106 0.63133,-1.72168 0.34723,-0.68063 0.83517,-1.79089 1.08429,-2.46725 0.24912,-0.67637 0.98713,-2.45376 1.64003,-3.94976 0.65289,-1.496 1.44685,-3.368 1.76435,-4.16 0.3175,-0.792 1.11174,-2.664 1.76499,-4.16 2.45555,-5.62344 2.93936,-8.68365 1.67469,-10.59268 -0.8209,-1.23909 -3.71171,-2.84732 -5.11811,-2.84732 -1.92439,0 -2.61472,-0.96012 -1.75687,-2.44352 3.10138,-5.36285 3.63172,-5.91096 6.16637,-6.37285 0.69789,-0.12719 1.95827,-0.49953 2.80077,-0.82744 1.23331,-0.48 2.40278,-0.59619 6.00061,-0.59619 4.14566,0 4.67113,0.0701 7.26816,0.9695 3.35766,1.16283 4.60704,2.09645 6.37782,4.76594 1.08234,1.6316 1.38007,2.40615 1.55584,4.04759 0.39367,3.67596 -0.79862,9.5822 -3.06374,15.17697 -1.18682,2.93139 -1.80131,4.52696 -2.71136,7.04 -0.47802,1.32 -1.14138,2.99177 -1.47415,3.71505 -0.33276,0.72328 -0.60502,1.42556 -0.60502,1.56063 0,0.21946 -0.90954,2.47351 -4.71475,11.68432 -0.61805,1.496 -1.46605,3.46708 -1.88448,4.38018 -0.41843,0.91311 -0.76077,1.85124 -0.76077,2.08474 0,0.23351 -0.26326,0.92642 -0.58502,1.53982 -0.3218,0.61339 -0.9201,2.17243 -1.32957,3.46454 l -0.74448,2.34927 0.66595,1.37077 c 0.76701,1.5787 2.72237,2.73068 4.63507,2.73068 1.29488,0 5.36586,-1.37393 6.62269,-2.2351 0.44845,-0.30728 1.61347,-1.06995 2.58896,-1.69482 0.97546,-0.62487 2.41242,-1.79531 3.19318,-2.60097 1.50848,-1.55653 3.83322,-4.89157 3.83322,-5.49909 0,-0.20004 0.26874,-0.70713 0.59718,-1.12686 0.53607,-0.6851 1.20224,-2.20325 4.05594,-9.24316 0.46371,-1.144 1.11846,-2.66547 1.45501,-3.38103 0.33654,-0.71557 0.61187,-1.51153 0.61187,-1.7688 0,-0.25727 0.19715,-0.75181 0.43811,-1.09897 0.46983,-0.67693 1.70304,-3.52046 2.96842,-6.84453 0.42989,-1.12933 0.88,-2.20933 1.00025,-2.4 0.12026,-0.19067 0.45485,-0.99467 0.74356,-1.78667 0.28867,-0.792 1.13286,-2.94132 1.87596,-4.77627 2.20596,-5.44715 2.43024,-7.85934 0.91053,-9.79136 -0.82953,-1.05459 -3.56662,-2.38494 -4.91568,-2.38924 -0.53833,-0.002 -1.25555,-0.20547 -1.59373,-0.45276 -0.5904,-0.43171 -0.59296,-0.49232 -0.0644,-1.52 2.57833,-5.0134 3.55222,-6.20135 5.45779,-6.65739 0.73657,-0.17628 2.20323,-0.61134 3.25923,-0.96681 1.5567,-0.52401 2.75267,-0.64629 6.32061,-0.64624 4.05952,6e-5 4.61513,0.0744 7.16861,0.95917 4.104,1.42201 5.55884,2.62316 7.17142,5.9209 0.85053,1.73936 0.93888,2.22542 0.9391,5.16629 2e-4,2.27586 -0.18275,3.85425 -0.61196,5.28 -0.33674,1.11854 -0.71581,2.53771 -0.8424,3.15371 -0.28756,1.39927 -1.86253,5.52897 -2.70909,7.1034 -0.34995,0.65087 -0.63629,1.3614 -0.63629,1.57896 0,0.21757 -0.27533,0.98104 -0.61187,1.69661 -0.56826,1.20829 -1.36138,3.09419 -2.96951,7.06103 -0.35673,0.88 -1.2847,3.31974 -2.06214,5.42164 -1.84317,4.98322 -3.65434,9.53584 -3.95376,9.93836 -0.13091,0.176 -0.4841,1.07431 -0.78483,1.99624 -0.30077,0.92193 -0.66848,1.75142 -0.81719,1.84332 -0.56611,0.34989 -1.9734,5.27198 -1.77091,6.19392 0.37367,1.70134 3.03834,3.56652 5.09523,3.56652 1.43591,0 5.17533,-1.34977 7.32141,-2.64269 3.48087,-2.09711 6.07024,-4.52702 7.58442,-7.11731 0.41155,-0.704 1.27142,-1.928 1.91085,-2.72 0.63942,-0.792 1.6927,-2.24971 2.34057,-3.23935 3.00919,-4.59652 9.62915,-9.85461 13.60496,-10.80614 0.65603,-0.157 2.05101,-0.517 3.1,-0.79999 5.62922,-1.51862 14.52074,0.77139 20.46387,5.27046 3.00173,2.27236 7.33277,6.72782 9.02266,9.28181 3.31712,5.01337 5.88883,11.94207 6.85571,18.47076 0.79373,5.35946 0.79175,7.9687 -0.0106,13.98245 -0.94995,7.12015 -2.82966,12.92004 -6.63744,20.48 -2.24585,4.45895 -9.78291,14.18757 -13.70675,17.69234 -5.85104,5.22613 -12.68048,10.10983 -18.21469,13.02521 -8.90413,4.69064 -10.13165,5.28258 -10.95853,5.28443 -0.4848,0 -1.31347,0.23207 -1.84147,0.51332 -0.528,0.28124 -1.68,0.77392 -2.56,1.09481 -0.88,0.3209 -2.824,1.03738 -4.32,1.59216 -7.37456,2.73498 -18.31709,5.47767 -26.88,6.73738 -12.68649,1.8663 -20.20857,2.36701 -35.68,2.37504 -11.06806,0.006 -26.888,-0.51059 -38.88,-1.26893 -4.136,-0.26157 -13.136,-0.62051 -20,-0.7977 -6.864,-0.17718 -18.384,-0.48579 -25.6,-0.68582 -17.93859,-0.49725 -54.36902,0.33712 -64.16,1.46947 -2.2,0.25447 -5.8,0.55315 -8,0.66378 -2.2,0.11062 -5.656,0.47049 -7.68,0.79971 -2.024,0.32918 -5.17645,0.74899 -7.00541,0.93286 -1.82899,0.18388 -4.56499,0.61248 -6.08,0.95245 -1.51504,0.34 -3.47459,0.70634 -4.35459,0.81408 -0.88,0.10778 -2.608,0.47146 -3.84,0.80816 -1.232,0.33674 -3.32,0.83344 -4.64,1.10381 -3.23693,0.66298 -6.04921,1.35715 -9.12,2.25107 -5.51245,1.60474 -6.03785,1.48531 -8.02857,-1.82467 -1.53824,-2.55763 -4.53434,-6.26061 -6.29204,-7.77654 -1.56915,-1.35335 -5.9895,-4.03412 -7.53136,-4.56756 -1.95737,-0.67715 -3.33929,0.54378 -2.50643,2.21437 0.20218,0.40547 1.33411,1.24563 2.51546,1.86701 3.14297,1.65315 6.98643,5.53466 7.45747,7.53123 0.12435,0.5272 0.63997,1.69607 1.14579,2.59747 0.50583,0.90144 0.91968,1.84 0.91968,2.08573 0,0.24573 0.36317,0.98122 0.80701,1.6344 1.07514,1.58221 1.54144,4.08979 1.07952,5.80525 -0.94989,3.52765 -10.40698,13.38198 -17.78557,18.5327 -4.79021,3.34391 -12.79648,7.39485 -17.54096,8.87533 -5.94515,1.85511 -8.85065,2.3208 -15.04,2.41066 -3.168,0.046 -6.12,0.0179 -6.56,-0.0624 z m -7.33222,-57.86595 c 1.33065,-0.89072 1.93433,-1.45296 3.24176,-3.01921 0.64166,-0.7687 1.85046,-4.28027 1.85046,-5.37565 0,-0.41498 -0.66618,-1.90104 -1.48042,-3.30237 -1.34748,-2.3191 -1.65376,-2.63449 -3.4111,-3.51265 -1.67542,-0.83721 -2.27702,-0.96478 -4.54998,-0.96478 -2.2129,0 -2.70919,0.0993 -3.1985,0.64 -0.31856,0.352 -0.8591,0.64 -1.20122,0.64 -0.74832,0 -2.41212,1.70305 -2.67084,2.7338 -0.10202,0.4065 -0.46055,0.98801 -0.79671,1.29224 -0.50685,0.4587 -0.61123,1.00068 -0.61123,3.17396 0,2.21441 0.0992,2.71062 0.64,3.2 0.352,0.31856 0.64,0.78809 0.64,1.0434 0,0.73738 1.5167,2.3438 3.30963,3.5054 1.56995,1.01712 1.77645,1.0649 4.23815,0.98022 2.25273,-0.0775 2.77062,-0.21142 4,-1.03436 z M 558.56,247.76367 c 2.62358,-0.93099 5.0201,-2.27406 7.68,-4.3041 3.12442,-2.38456 3.79862,-3.19855 4.76976,-5.75883 0.4673,-1.232 1.13328,-2.85585 1.47994,-3.60856 0.34665,-0.75271 0.6303,-1.52894 0.6303,-1.72495 0,-0.19601 0.28064,-0.94816 0.62365,-1.67144 0.34301,-0.72328 2.00451,-4.84305 3.69225,-9.15505 1.68772,-4.312 3.35108,-8.45585 3.69636,-9.20856 0.34524,-0.75271 0.62905,-1.54471 0.63065,-1.76 0.003,-0.21529 0.35712,-1.11144 0.79002,-1.99144 0.43286,-0.88 0.79209,-1.816 0.79827,-2.08 0.006,-0.264 0.29866,-0.95148 0.64998,-1.52773 0.35136,-0.57626 0.63882,-1.20614 0.63882,-1.39973 0,-0.19359 0.48198,-1.45011 1.07107,-2.79226 0.58909,-1.34216 1.46567,-3.37628 1.94794,-4.52028 0.48227,-1.144 1.10077,-2.57695 1.37446,-3.18434 0.65568,-1.45512 0.18003,-2.33079 -1.99347,-3.66989 -1.46048,-0.89981 -1.83718,-0.98534 -4.32,-0.98088 -2.23859,0.004 -3.11645,0.1653 -4.96,0.91126 -3.91933,1.58588 -7.86675,4.43967 -10.67994,7.72107 -3.06073,3.57014 -7.47814,10.69491 -10.61625,17.12278 -1.07405,2.2 -2.08163,4.216 -2.23911,4.48 -1.80569,3.02774 -4.7015,10.28687 -5.91478,14.82701 -0.73443,2.74838 -0.82762,3.64012 -0.73546,7.04 0.0974,3.59025 0.17239,3.99573 0.96503,5.21415 0.56745,0.87224 1.43731,1.61478 2.56,2.18528 1.46672,0.74533 1.96448,0.84032 3.62051,0.69097 1.056,-0.0952 2.784,-0.47976 3.84,-0.85448 z M 438.48128,377.94074 c -0.2504,-0.31587 -0.66144,-4.40262 -0.76438,-7.6 -0.0198,-0.61834 -1.13735,-5.72064 -1.75207,-8 -1.1311,-4.19424 -2.03293,-6.7337 -3.35065,-9.43523 -1.14448,-2.3464 -1.21274,-3.77255 -0.21418,-4.47488 1.61789,-1.13799 9.66122,-3.33776 18.13213,-4.95904 1.68733,-0.32295 5.22761,-1.03472 7.86733,-1.58173 2.63968,-0.54698 6.09568,-1.14067 7.68,-1.3193 1.58428,-0.17862 4.10259,-0.47558 5.59619,-0.6599 11.41971,-1.40922 13.59523,-1.5825 22.24435,-1.77168 13.80474,-0.30192 41.76675,1.14131 46.21386,2.38528 2.04768,0.5728 0.41833,1.78365 -3.07303,2.28374 -2.03769,0.29188 -5.07885,0.75965 -14.74061,2.26733 -2.15587,0.33642 -5.03587,0.88755 -6.4,1.22474 -1.36412,0.33718 -3.87027,0.70221 -5.56921,0.81113 -2.06496,0.13242 -3.58461,0.41735 -4.58403,0.85943 -0.82228,0.36371 -2.31223,0.73651 -3.31101,0.82845 -0.99879,0.0919 -3.11197,0.57171 -4.69597,1.06617 -1.584,0.49447 -3.456,1.0032 -4.16,1.13053 -0.704,0.12733 -1.81427,0.50003 -2.46726,0.82822 -0.653,0.3282 -1.59264,0.59674 -2.08813,0.59674 -0.49549,0 -1.76125,0.42749 -2.81277,0.94995 -1.05152,0.5225 -2.3312,0.9545 -2.84371,0.96 -0.51255,0.005 -1.52055,0.34967 -2.24,0.76474 -0.71949,0.41504 -1.73136,0.85664 -2.24861,0.98125 -0.51728,0.12464 -1.33149,0.50505 -1.80941,0.84534 -0.47789,0.34029 -1.20669,0.61946 -1.61952,0.62035 -0.41283,0 -1.32659,0.35642 -2.03059,0.79002 -0.704,0.4336 -1.50166,0.79286 -1.77258,0.79837 -0.91033,0.0186 -13.03155,6.33024 -16.62742,8.6583 -0.792,0.51274 -2.40509,1.43898 -3.58464,2.05827 -1.17955,0.6193 -2.61955,1.54026 -3.2,2.04663 -0.58045,0.50636 -1.68166,1.23827 -2.44717,1.62646 -0.7655,0.38819 -1.9895,1.25379 -2.72,1.92355 -1.40349,1.28682 -3.65645,2.89677 -4.05366,2.89677 -0.12989,0 -0.37885,-0.18 -0.55325,-0.4 z m 333.35126,-78.97395 c -0.37753,-0.70542 0.13418,-3.66201 1.31876,-7.61976 0.3376,-1.12797 0.6087,-2.99685 0.6087,-4.19632 0,-1.18944 0.1432,-2.91768 0.31821,-3.84053 0.31763,-1.67484 3.25491,-7.83551 5.2376,-10.98544 0.57609,-0.9152 1.71744,-2.97467 2.53638,-4.5766 0.81895,-1.60194 1.99722,-3.81177 2.6184,-4.91075 0.62119,-1.09897 1.12941,-2.08021 1.12941,-2.18053 0,-0.10032 0.6503,-1.22575 1.44509,-2.50096 0.79481,-1.2752 1.78742,-3.09259 2.20579,-4.03863 0.4184,-0.94603 1.61632,-3.15477 2.66211,-4.9083 1.04576,-1.75353 2.63181,-4.55623 3.52451,-6.22823 0.89274,-1.672 2.51789,-4.624 3.61149,-6.56 2.37584,-4.20601 5.32928,-9.60075 7.18275,-13.12 0.74157,-1.408 1.80368,-3.32385 2.36026,-4.25745 0.55658,-0.9336 2.18925,-3.9576 3.62813,-6.72 1.43885,-2.7624 3.09395,-5.74063 3.67798,-6.61828 1.12711,-1.69374 1.38461,-3.33806 0.62189,-3.97106 -0.32541,-0.27008 -13.02525,-0.36286 -48.77427,-0.35631 -53.17037,0.01 -49.61728,0.14578 -49.03703,-1.87756 0.32304,-1.12636 2.23239,-5.94868 3.32944,-8.40896 1.40023,-3.14018 -4.37683,-2.83038 52.78077,-2.83038 h 50.51651 l 1.65229,-1.68596 c 2.25405,-2.29999 3.48371,-3.11404 4.70391,-3.11404 1.26563,0 2.94265,0.99609 3.87024,2.29876 1.15104,1.61652 2.29747,1.90362 6.09907,1.5274 2.11107,-0.20892 18.39469,-0.29403 45.21907,-0.23633 l 41.92,0.0902 1.92,0.90924 c 2.1337,1.01045 7.05043,3.88474 7.92,4.63001 0.6897,0.59109 0.71872,1.61175 0.0721,2.53495 -0.45945,0.65597 -3.76867,2.70159 -7.35046,4.54373 -1.45725,0.74947 -2.1072,0.84711 -7.36,1.10559 -3.1689,0.15594 -8.1016,0.26485 -10.9616,0.24202 -4.45827,-0.0356 -19.21133,-0.0512 -37.28,-0.0394 -2.684,0.002 -12.512,-0.0773 -21.84,-0.17558 -9.328,-0.0983 -17.2832,-0.0979 -17.67824,9.6e-4 -0.48214,0.12065 -1.04602,0.83537 -1.7153,2.17408 -0.54835,1.09689 -1.315,2.42634 -1.70368,2.95434 -0.38864,0.528 -1.17078,1.78005 -1.73808,2.78232 -0.56729,1.00227 -2.2134,3.61805 -3.65808,5.81284 -3.02115,4.58991 -5.91513,9.02871 -7.72352,11.84643 -0.69129,1.07713 -2.93817,4.55041 -4.99312,7.71841 -2.05491,3.168 -4.15331,6.42154 -4.6631,7.23008 -1.09306,1.73362 -12.40858,18.78842 -14.3112,21.56992 -0.72237,1.056 -2.21786,3.288 -3.32333,4.96 -1.10547,1.672 -2.61789,3.904 -3.36093,4.96 -0.74304,1.056 -2.31683,3.36 -3.49728,5.12 -1.18048,1.76 -2.74,3.7722 -3.46563,4.47154 -1.14457,1.10315 -3.75129,5.0196 -5.02016,7.54248 -0.22515,0.44771 -0.63497,1.88637 -0.91069,3.19701 -0.52483,2.49497 -1.83308,5.71525 -2.492,6.13405 -0.69123,0.43935 -1.47584,0.26857 -1.83312,-0.39902 z M 242.37769,261.54078 c -5.20836,-0.72032 -8.1537,-2.32998 -10.63509,-5.81216 -0.22957,-0.32216 -0.63884,-1.75985 -0.9095,-3.19488 -0.83955,-4.45129 0.17088,-9.52612 3.6542,-18.353 0.34728,-0.88 0.86481,-2.032 1.15008,-2.56 0.28527,-0.528 0.5201,-1.176 0.52185,-1.44 0.002,-0.264 0.29062,-0.95148 0.64197,-1.52773 0.35134,-0.57626 0.6388,-1.20625 0.6388,-1.39999 0,-0.19374 0.34718,-1.16226 0.77151,-2.15226 1.92456,-4.4902 4.39666,-10.43645 5.77882,-13.90008 0.82964,-2.07903 1.71033,-4.16703 1.95708,-4.64 0.24676,-0.47297 0.45007,-1.07594 0.45182,-1.33994 0.002,-0.264 0.26625,-0.912 0.58782,-1.44 0.32155,-0.528 0.68704,-1.392 0.81219,-1.92 0.12514,-0.528 0.50504,-1.536 0.8442,-2.24 0.33917,-0.704 1.13614,-2.504 1.77105,-4 0.63491,-1.496 1.35551,-3.152 1.60134,-3.68 0.24584,-0.528 1.81035,-4.416 3.4767,-8.64 1.66636,-4.224 3.68623,-9.19035 4.4886,-11.03634 1.26614,-2.91294 1.45887,-3.64776 1.45887,-5.56222 0,-2.09412 -0.0551,-2.25786 -1.08805,-3.23203 -1.3662,-1.2885 -3.03033,-2.08941 -4.34135,-2.08941 -1.21575,0 -2.2506,-0.50178 -2.2506,-1.09126 0,-0.23581 0.773,-2.06674 1.71778,-4.06874 2.34988,-4.97941 1.85021,-4.76 10.83999,-4.76 6.78785,0 7.31907,0.0441 9.74939,0.80902 4.98711,1.5697 7.02271,3.61014 7.93408,7.95295 0.53224,2.53623 0.53186,2.8241 -0.008,6.14941 -0.77466,4.76973 -1.99756,8.7258 -4.49106,14.52862 -0.64284,1.496 -1.45016,3.42765 -1.79404,4.29255 -0.34389,0.86491 -0.83285,1.86895 -1.08659,2.2312 -0.25373,0.36226 -0.46133,0.87976 -0.46133,1.15 0,0.27024 -0.36,1.1676 -0.8,1.99414 -0.44,0.82654 -0.7996,1.68939 -0.79911,1.91745 6.4e-4,0.22806 -0.27336,0.99066 -0.60855,1.69466 -0.3352,0.704 -0.97294,2.144 -1.41722,3.2 -0.44428,1.056 -1.25043,2.90817 -1.79145,4.11593 -1.19503,2.66775 -1.21152,3.01328 -0.16284,3.41199 1.1232,0.42704 21.51975,0.41105 22.75005,-0.0178 0.86418,-0.30126 1.15165,-0.85017 3.30983,-6.32 1.2999,-3.29455 2.62351,-6.49196 2.94137,-7.10535 0.31786,-0.6134 0.58242,-1.3334 0.58793,-1.6 0.005,-0.26661 0.36419,-1.20474 0.79707,-2.08474 0.43289,-0.88 0.78839,-1.78748 0.79,-2.01661 0.002,-0.22913 0.28692,-0.94913 0.63404,-1.6 0.34712,-0.65087 1.14525,-2.40739 1.77363,-3.90339 0.62838,-1.496 1.3422,-3.152 1.58626,-3.68 2.22815,-4.82037 3.369,-8.24899 3.369,-10.12493 0,-1.27219 -0.17636,-1.73368 -1.03725,-2.71418 -1.22819,-1.39882 -3.14641,-2.34411 -4.77658,-2.35387 -2.55949,-0.0153 -2.73922,-0.67127 -1.10325,-4.02624 0.5956,-1.22143 1.17775,-2.53359 1.29366,-2.9159 0.11591,-0.38231 0.78101,-1.21031 1.47801,-1.84 l 1.26725,-1.14489 h 7.43799 c 7.18619,0 7.52468,0.0287 9.99908,0.84723 3.02448,1.00052 4.96986,2.24866 6.24208,4.00494 1.69443,2.33908 2.00291,3.64725 1.84967,7.84408 -0.13581,3.7186 -0.36852,4.7543 -2.21626,9.86375 -0.19094,0.528 -0.61821,1.73652 -0.94944,2.68559 -0.33123,0.94907 -0.7319,1.88507 -0.89034,2.08 -0.15846,0.19493 -0.43475,0.85841 -0.61398,1.47441 -0.17926,0.616 -0.8488,2.344 -1.4879,3.84 -0.63911,1.496 -2.68215,6.536 -4.5401,11.2 -1.85797,4.664 -3.48862,8.624 -3.62368,8.8 -0.13505,0.176 -0.42689,0.896 -0.64852,1.6 -0.22164,0.704 -0.59216,1.64 -0.8234,2.08 -0.65893,1.25387 -2.69704,5.97328 -2.69704,6.24523 0,0.13457 -0.27367,0.83644 -0.60815,1.55972 -0.33449,0.72328 -1.06391,2.53905 -1.62095,4.03505 -1.29605,3.48068 -3.75138,9.52477 -6.13654,15.1058 -1.57185,3.67796 -1.87357,4.68504 -1.86946,6.24 0.006,2.17064 0.0432,2.24152 1.88311,3.56296 2.10675,1.51307 4.18739,1.43649 7.56892,-0.27858 7.48967,-3.79868 10.35056,-7.07377 12.15088,-13.91018 1.46233,-5.55291 2.51862,-8.76102 3.47689,-10.56 0.28125,-0.528 0.51226,-1.12804 0.51332,-1.33342 0,-0.20539 0.5271,-1.35739 1.16892,-2.56 0.64183,-1.20262 1.62868,-3.05058 2.19303,-4.10658 4.74627,-8.88111 7.73113,-13.16288 12.52317,-17.96424 7.71996,-7.73505 15.12412,-12.06561 24.7871,-14.49753 3.39706,-0.85495 4.44106,-0.97823 8.28432,-0.97823 4.16762,0 4.52096,0.0508 6.76144,0.97313 1.30019,0.53523 2.868,1.37586 3.484,1.86806 1.79747,1.43625 2.52541,1.74589 3.06045,1.30183 0.25277,-0.20976 0.45955,-0.55465 0.45955,-0.76642 0,-0.21177 0.37155,-0.73414 0.82563,-1.16082 l 0.82563,-0.77578 10.10695,-0.0521 c 5.55881,-0.0286 10.44329,0.0758 10.85437,0.23208 0.97939,0.37236 0.9775,1.55253 -0.006,3.66427 -0.41088,0.88234 -0.93396,2.17834 -1.1624,2.88 -0.22845,0.70165 -0.61085,1.55978 -0.84983,1.90694 -0.23894,0.34716 -0.43446,0.83978 -0.43446,1.09471 0,0.25493 -0.44714,1.41089 -0.99363,2.5688 -1.66628,3.53043 -2.41952,5.20095 -3.47447,7.70529 -0.55603,1.32 -1.34861,3.192 -1.76125,4.16 -0.41267,0.968 -1.70707,4.32642 -2.87648,7.46316 -2.06112,5.52866 -4.36505,11.19122 -5.62169,13.81684 -0.33693,0.704 -1.12976,2.504 -1.76183,4 -0.63209,1.496 -1.42857,3.31177 -1.76995,4.03505 -0.34137,0.72328 -0.6207,1.48718 -0.6207,1.69756 0,0.21038 -0.30416,1.05016 -0.67591,1.86619 -0.93827,2.05965 -1.17043,4.93759 -0.48294,5.98684 1.7841,2.72288 6.56099,2.71137 11.30336,-0.0272 6.21734,-3.59035 9.11773,-7.5832 13.33542,-18.35843 3.39988,-8.68585 5.9073,-14.61358 8.05396,-19.04 1.21513,-2.50559 2.55139,-5.89405 3.18643,-8.07997 0.49539,-1.70532 0.52285,-2.19412 0.18621,-3.31764 -0.69264,-2.31182 -2.60468,-3.63412 -5.82941,-4.03141 -1.72042,-0.21196 -2.05191,-0.35431 -2.13213,-0.91565 -0.13818,-0.96669 3.04032,-7.35876 4.10442,-8.25415 0.50377,-0.4239 1.55984,-0.85987 2.38121,-0.98305 0.81181,-0.12173 2.08202,-0.49645 2.82269,-0.8327 1.11139,-0.50455 2.10832,-0.6126 5.70586,-0.6184 3.82614,-0.006 4.66716,0.0935 6.87843,0.81535 1.3856,0.4523 2.97405,1.10345 3.52992,1.44699 1.44221,0.89134 3.14953,2.87561 4.16374,4.83914 0.82503,1.59733 0.87232,1.92307 0.8497,5.85149 -0.0243,4.19985 -0.52903,6.72699 -2.23741,11.2 -0.26886,0.704 -0.84666,2.216 -1.28397,3.36 -0.43734,1.144 -1.05603,2.8 -1.37491,3.68 -0.31888,0.88 -1.18189,3.04 -1.91776,4.8 -0.73587,1.76 -1.6,3.92 -1.92026,4.8 -0.32025,0.88 -1.03884,2.68 -1.5968,4 -0.55798,1.32 -1.14713,2.832 -1.30918,3.36 -0.16208,0.528 -0.50451,1.392 -0.76102,1.92 -0.44957,0.92546 -2.07776,4.64053 -3.78656,8.64 -1.10292,2.58131 -1.60061,4.56769 -1.37239,5.47711 0.36531,1.45545 2.01482,2.93174 3.67309,3.28738 3.33216,0.71461 7.07642,-0.64761 11.36451,-4.13458 2.61072,-2.12297 3.60567,-3.44908 4.50307,-6.00175 0.41533,-1.18149 1.13508,-3.15616 1.59936,-4.38816 0.46432,-1.232 1.10781,-3.032 1.42996,-4 0.32217,-0.968 0.73929,-2.12 0.92697,-2.56 0.18768,-0.44 1.07255,-2.72047 1.96637,-5.06772 0.89386,-2.34724 1.75958,-4.50724 1.92384,-4.8 0.16429,-0.29275 0.93542,-2.04428 1.7137,-3.89228 0.77824,-1.848 1.64438,-3.792 1.92473,-4.32 0.28035,-0.528 0.51066,-1.17996 0.51171,-1.44879 0,-0.26885 0.23338,-0.81915 0.51616,-1.22291 0.28282,-0.40376 0.70301,-1.4798 0.93376,-2.3912 0.23076,-0.9114 0.64106,-2.2331 0.91178,-2.9371 0.27072,-0.704 0.49853,-2.24095 0.50624,-3.41544 0.0122,-1.84823 -0.0987,-2.26942 -0.82406,-3.1315 -1.07968,-1.28311 -2.14701,-1.82104 -4.12612,-2.07956 -2.7584,-0.3603 -3.03577,-0.46545 -3.03577,-1.15085 0,-0.35484 0.22489,-0.98841 0.49977,-1.40793 0.27488,-0.41953 1.17488,-2.10361 2,-3.7424 1.31248,-2.60672 1.64039,-3.02622 2.62023,-3.35185 6.05961,-2.01382 6.19638,-2.04047 10.4743,-2.04047 3.54922,0 4.52538,0.11701 6.67936,0.80066 2.82762,0.89743 5.42189,2.53002 6.71559,4.22615 1.65206,2.16595 2.67254,5.12468 2.68208,7.77632 0.0102,2.82736 -1.51348,8.77987 -3.35754,13.11687 -0.63606,1.496 -2.07853,5.024 -3.20541,7.84 -1.85478,4.63484 -2.86432,7.28868 -5.1735,13.6 -0.41856,1.144 -0.97114,2.53377 -1.22794,3.08836 -0.25683,0.5546 -0.46694,1.23575 -0.46694,1.51367 0,0.27792 -0.34266,1.40815 -0.76144,2.51164 -1.15264,3.03717 -2.14541,7.61009 -2.19149,10.09437 -0.0351,1.89398 0.0896,2.44412 0.84659,3.7359 1.91687,3.27088 6.49869,3.62844 10.57319,0.82511 1.50745,-1.03715 2.0878,-2.27549 2.09136,-4.46254 0.003,-1.40511 1.80787,-8.14491 2.59692,-9.69376 0.33268,-0.65299 0.60487,-1.44712 0.60487,-1.76474 0,-0.31762 0.288,-1.11483 0.64,-1.77158 0.352,-0.65676 0.64,-1.35662 0.64,-1.55525 0,-0.19863 0.34493,-1.17115 0.76653,-2.16116 3.2504,-7.6329 4.7246,-11.04512 6.5151,-15.08002 1.13248,-2.552 2.34368,-5.288 2.69162,-6.08 0.34793,-0.792 0.76083,-1.68131 0.91756,-1.97624 0.65578,-1.23415 7,-15.35245 7.98,-17.75859 0.58576,-1.43816 1.38967,-3.02216 1.78644,-3.52 l 0.7214,-0.90517 10.26791,-0.0927 c 10.62525,-0.096 11.55344,-6e-5 11.55344,1.19374 0,0.50675 -2.05312,5.04591 -5.29165,11.699 -0.42835,0.88 -1.37456,2.896 -2.10269,4.48 -0.72813,1.584 -1.73376,3.71373 -2.23478,4.73274 -0.50103,1.019 -1.93488,4.187 -3.18637,7.04 -1.25146,2.85299 -2.53904,5.76326 -2.86128,6.46726 -0.98278,2.14712 -6.05232,12.42764 -6.54867,13.28 -0.25623,0.44 -1.56378,2.744 -2.9057,5.12 -3.14125,5.56191 -6.17037,9.60401 -10.19987,13.61086 -3.1687,3.15091 -7.41094,6.59035 -9.30899,7.54736 -0.528,0.26623 -1.248,0.64172 -1.6,0.83443 -5.73133,3.13777 -13.47747,4.97701 -21.12,5.01472 -3.7576,0.0185 -4.8928,-0.0962 -7.04,-0.71161 -4.74237,-1.35917 -7.40688,-3.54663 -9.30023,-7.63515 -1.06473,-2.29919 -1.7974,-3.0397 -2.69977,-2.72868 -0.264,0.091 -1.26199,0.87669 -2.21776,1.74599 -1.77015,1.60998 -5.97053,4.58205 -6.98323,4.94115 -0.30746,0.10902 -0.77501,0.37659 -1.03901,0.59461 -0.80381,0.66381 -5.29555,2.33398 -8.08576,3.00654 -9.98835,2.40761 -18.06227,-0.34638 -21.22448,-7.23961 -1.41994,-3.09528 -1.96519,-3.3558 -3.72656,-1.7805 -3.89578,3.48426 -6.45181,5.07804 -12.4032,7.73388 -4.49792,2.00723 -12.03824,2.69394 -16.32,1.48631 -4.59437,-1.29581 -7.43159,-3.65698 -9.6,-7.98925 -0.44,-0.87908 -0.96125,-1.64744 -1.15837,-1.70747 -0.19709,-0.06 -0.98909,0.39464 -1.76,1.01038 -7.63619,6.09923 -15.17533,9.26521 -22.04592,9.25793 -8.63293,-0.009 -14.74579,-4.13329 -17.4089,-11.74524 -0.37843,-1.08166 -0.79977,-2.14665 -0.93632,-2.36665 -0.54371,-0.876 -1.69014,-0.37999 -3.58051,1.54913 -4.07765,4.16123 -8.3578,7.30382 -12.8361,9.42458 -9.48889,4.4936 -19.44095,4.24224 -24.70443,-0.62396 -2.54543,-2.35331 -4.19283,-6.39468 -4.20454,-10.31452 -0.006,-2.10738 1.05797,-7.28669 2.05578,-10.00456 1.43281,-3.90274 3.33034,-8.81271 4.34025,-11.23067 0.55133,-1.32 1.26639,-3.12 1.58902,-4 0.32264,-0.88 0.96088,-2.4321 1.41832,-3.44912 1.04422,-2.32158 1.07474,-3.29111 0.11172,-3.54918 -0.9237,-0.24755 -21.61304,-0.25384 -22.5338,-0.007 -0.3974,0.1066 -0.84984,0.61738 -1.05905,1.19563 -0.20088,0.55524 -0.64468,1.54206 -0.9862,2.19293 -0.34152,0.65086 -0.62095,1.3614 -0.62095,1.57896 0,0.21757 -0.27858,0.98104 -0.61907,1.69661 -2.92738,6.15218 -8.23072,19.72831 -8.6695,22.19325 -0.801,4.49909 1.27748,7.10776 5.66305,7.10776 1.1445,0 1.45941,0.13234 1.73045,0.72721 0.27873,0.61173 0.0227,1.34762 -1.61199,4.63443 -2.55373,5.1345 -2.30738,5.00419 -9.61307,5.08505 -3.08,0.0341 -6.47404,-0.0589 -7.54231,-0.20665 z m 112.35508,-13.28832 c 2.95552,-0.75665 6.76979,-2.75926 9.65299,-5.06812 3.01242,-2.4123 3.33859,-2.84247 4.57037,-6.02774 0.49683,-1.28472 1.34896,-3.37986 1.8936,-4.65586 0.54464,-1.276 1.43462,-3.364 1.97773,-4.64 0.54313,-1.276 1.17475,-2.896 1.40364,-3.6 0.2289,-0.704 0.63197,-1.784 0.89575,-2.4 0.26377,-0.616 0.77737,-1.912 1.14134,-2.88 1.91597,-5.0958 3.68576,-9.58522 4.23434,-10.74103 0.33961,-0.71557 0.61747,-1.47904 0.61747,-1.69661 0,-0.21756 0.28013,-0.92809 0.62253,-1.57896 0.34237,-0.65087 1.22086,-2.6234 1.95219,-4.3834 0.73133,-1.76 1.6032,-3.78547 1.93747,-4.50103 0.33431,-0.71557 0.60781,-1.4599 0.60781,-1.65407 0,-0.19417 0.252,-0.79503 0.56,-1.33524 0.50854,-0.89194 0.51523,-1.06257 0.073,-1.85659 -0.26784,-0.48091 -1.19318,-1.31058 -2.05629,-1.84372 -1.42998,-0.8833 -1.81286,-0.96891 -4.31299,-0.96446 -2.26461,0.004 -3.13478,0.16314 -4.98368,0.91126 -3.86685,1.56465 -8.0408,4.54821 -10.51872,7.51884 -1.47085,1.76332 -6.02288,8.56315 -7.84912,11.72501 -2.38944,4.137 -7.41363,14.52752 -8.70346,17.99965 -2.12025,5.70756 -3.1687,10.24893 -3.1687,13.72518 0,1.8076 0.17286,3.42824 0.43152,4.04545 1.04544,2.49476 3.60182,4.36793 5.98125,4.38269 0.62301,0.004 1.99101,-0.21269 3.04,-0.48125 z M 129.76,201.68842 c -1.056,-0.13102 -19.73323,-0.25385 -41.504947,-0.27295 -28.85354,-0.0253 -39.801719,-0.1335 -40.384576,-0.39907 -1.001847,-0.45647 -1.681731,-1.86208 -1.976883,-4.08704 -0.401152,-3.02403 -0.335159,-3.00233 -8.567616,-2.81805 -3.897287,0.0872 -7.323788,0.25651 -7.614445,0.37616 -0.621216,0.25572 -0.901118,1.13678 -0.907163,2.8555 -0.006,1.70521 -1.037316,3.2666 -2.469913,3.7394 -1.212213,0.40007 -5.505001,0.22153 -7.899484,-0.32853 -2.114011,-0.48564 -2.261795,-0.8175 -2.38204,-5.34918 -0.124987,-4.71036 0.05191,-5.95853 0.965019,-6.80923 1.766588,-1.64583 -0.408499,-1.57737 42.822051,-1.34788 33.05718,0.17548 40.295837,0.29048 40.928067,0.65017 1.15226,0.65557 4.7529,1.01259 6.47999,0.64253 0.99088,-0.21231 1.92638,-0.72351 2.8,-1.53002 1.09425,-1.01021 1.31194,-1.4134 1.31194,-2.42988 0,-0.9959 -0.2234,-1.43122 -1.22194,-2.38111 -0.67207,-0.63933 -1.81072,-1.33881 -2.53033,-1.55441 -2.45511,-0.73557 -4.12655,-3.65955 -2.83195,-4.95416 0.65047,-0.65046 6.76284,-0.98503 10.19782,-0.55818 4.90987,0.61012 8.0958,2.19053 13.361,6.62786 4.83889,4.07804 6.84346,5.34642 9.26009,5.85926 1.46225,0.31031 7.00288,0.44453 21.54687,0.52197 10.76814,0.0573 20.61323,0.14359 21.87798,0.19169 2.16387,0.0823 2.35739,0.032 3.28,-0.8524 0.80384,-0.77056 0.98046,-1.19425 0.98046,-2.352 0,-2.02458 -1.34961,-3.30012 -4.50081,-4.25377 -3.72584,-1.12756 -5.38806,-3.20549 -3.81919,-4.77436 0.5938,-0.5938 1.06155,-0.6395 6.48,-0.63308 10.88479,0.0129 15.07444,1.78797 23.4809,9.94832 l 2.6009,2.52476 4.7591,0.0482 c 2.61751,0.0265 7.73044,0.0276 11.36208,0.003 8.03732,-0.0554 7.79587,-0.18131 6.50757,3.39233 -1.56384,4.33797 -3.70695,9.17308 -4.39556,9.91692 l -0.66655,0.72004 -47.70422,-0.0471 C 153.1469,201.94783 130.816,201.81945 129.76,201.68842 Z m 67.89076,-13.98768 c 1.18349,-1.26978 1.49165,-2.26021 1.04143,-3.34714 -0.54141,-1.30708 -1.91644,-2.17286 -3.45092,-2.17286 -1.06131,0 -1.50749,0.20756 -2.4306,1.13067 -1.23927,1.23926 -1.37689,1.94497 -0.6525,3.3458 0.6868,1.32812 1.70466,1.92353 3.28831,1.92353 1.09773,0 1.55377,-0.18206 2.20428,-0.88 z m 455.18271,-17.84582 c -4.88336,-1.37143 -7.99629,-4.64506 -9.03859,-9.50516 -0.90886,-4.23788 0.85853,-9.27848 4.24006,-12.09262 2.52023,-2.09733 4.91472,-2.99887 7.96506,-2.99887 5.42461,0 10.31648,3.66046 12.11408,9.0646 0.86208,2.5917 0.86435,4.17272 0.0102,6.93862 -1.1568,3.74524 -3.09984,5.9798 -6.77133,7.78727 -2.53817,1.24954 -5.83104,1.56114 -8.51936,0.80616 z m 41.88653,-0.008 c -4.13126,-1.15583 -7.72637,-4.47599 -8.73683,-8.06862 -0.79095,-2.81227 -0.8984,-3.96486 -0.54391,-5.83422 1.0272,-5.41627 5.3178,-9.60517 10.90215,-10.64368 3.32931,-0.61915 7.13968,0.69167 10.23149,3.51976 2.49212,2.27957 3.53209,4.46536 3.74451,7.87031 0.28409,4.55351 -0.75818,7.47854 -3.59731,10.09557 -3.21677,2.96511 -7.99037,4.18272 -12.0001,3.06088 z m -228.9672,-6.84528 c -3.12778,-0.49377 -6.91402,-3.30034 -8.0153,-5.94136 -1.72886,-4.14613 -1.09299,-8.26386 2.59437,-16.8 0.64624,-1.496 1.43911,-3.368 1.76195,-4.16 0.32282,-0.792 0.88378,-2.01045 1.24656,-2.70766 0.36279,-0.69721 0.66058,-1.48921 0.66173,-1.76 0,-0.27079 0.28819,-0.92434 0.63789,-1.45234 0.3497,-0.528 0.63674,-1.16653 0.63789,-1.41897 0,-0.25243 0.28179,-1.04443 0.62365,-1.76 0.34182,-0.71556 0.82928,-1.87703 1.08323,-2.58103 0.25392,-0.704 1.71875,-4.376 3.25513,-8.16 1.53642,-3.784 3.16013,-7.816 3.60829,-8.96 0.44816,-1.144 1.00765,-2.36404 1.24333,-2.7112 0.23565,-0.34716 0.42848,-0.82424 0.42848,-1.06017 0,-0.23592 0.41488,-1.31988 0.92192,-2.40879 1.58502,-3.403823 4.23526,-9.845743 7.39696,-17.979839 1.88768,-4.856429 3.18349,-8.007878 4.47354,-10.88 0.5687,-1.266051 1.71411,-3.919264 3.33283,-7.720016 0.4591,-1.078006 0.83475,-2.165206 0.83475,-2.416 0,-0.25079 0.13456,-0.592784 0.29904,-0.759984 0.16448,-0.1672 0.6808,-1.312 1.14739,-2.544 1.44224,-3.808266 1.66861,-4.374547 3.19799,-8 0.8167,-1.936 1.7504,-4.24 2.07488,-5.12 0.32448,-0.88 1.11625,-2.824 1.75945,-4.32 0.6432,-1.496 1.37655,-3.283568 1.62963,-3.972374 0.25312,-0.688804 0.58349,-1.408804 0.73421,-1.6 0.15069,-0.191194 0.45283,-0.923626 0.67136,-1.627626 0.21856,-0.704 0.57357,-1.568 0.7889,-1.92 0.21533,-0.352 0.93107,-2.210441 1.59059,-4.129868 1.42525,-4.148172 1.37331,-5.083771 -0.3671,-6.611877 -1.94378,-1.706668 -4.48752,-2.554313 -9.09056,-3.029219 -3.0889,-0.318692 -3.03901,-0.191522 -2.38916,-6.088621 0.30708,-2.7865733 0.67888,-5.2917393 0.82621,-5.5670363 0.56173,-1.049589 1.5824,-1.64199 3.55991,-2.066199 1.12598,-0.241543 3.26524,-0.759868 4.75388,-1.151832 2.45719,-0.646981 3.20922,-0.696512 8.16,-0.537435 4.68864,0.150654 5.94701,0.308037 8.97338,1.122296 9.54547,2.568242 14.64413,6.6263503 18.03382,14.3534273 0.55341,1.2615 1.00618,2.456651 1.00618,2.655891 0,0.199241 0.20093,0.751104 0.44653,1.226364 0.24557,0.47526 0.84557,3.168109 1.33328,5.984109 0.79033,4.563168 0.88323,5.850842 0.85424,11.84 -0.0179,3.696 -0.25719,10.901632 -0.53178,16.012515 -0.27459,5.110883 -0.64304,15.262883 -0.81881,22.56 -0.31642,13.13617 -0.79364,24.499284 -1.16538,27.749904 -0.23901,2.08965 0.18077,2.7793 1.36358,2.24037 0.4362,-0.19874 2.15386,-2.09867 3.81706,-4.22206 1.66317,-2.12341 4.57136,-5.821798 6.46262,-8.218659 1.89127,-2.39686 3.79866,-4.833574 4.23866,-5.414921 0.44,-0.581347 1.736,-2.202589 2.88,-3.602762 1.144,-1.400173 3.35645,-4.219459 4.91658,-6.265078 1.56009,-2.045159 3.44444,-4.438849 4.18742,-5.318849 0.74301,-0.88 4.8393,-6.064 9.10291,-11.52 4.26359,-5.456 8.87187,-11.288 10.24061,-12.96 1.3687,-1.672 3.83632,-4.84 5.48352,-7.04 1.6472,-2.2 3.79606,-4.936 4.77526,-6.08 0.9792,-1.144 3.77984,-4.672 6.22359,-7.84 2.44377,-3.168 4.8384,-6.192 5.32137,-6.72 1.23908,-1.354585 1.40279,-2.143264 0.64493,-3.106748 -0.86073,-1.094234 -3.99744,-2.221321 -6.23798,-2.241455 -1.21571,-0.01092 -2.03485,-0.197022 -2.49021,-0.565742 l -0.67856,-0.549463 1.81382,-3.808296 c 2.83946,-5.9618133 3.20135,-6.6023703 4.10359,-7.2633613 0.47654,-0.349097 3.13539,-1.162099 6.08,-1.85908 4.81353,-1.139345 5.60585,-1.238956 9.88118,-1.242261 4.07021,-0.0032 5.12983,0.114058 8.52365,0.942798 4.96227,1.211741 7.3841,2.442029 10.0576,5.109278 1.59101,1.5873013 2.2871,2.5760703 2.83312,4.0243303 2.68099,7.110989 0.74618,18.174548 -5.61146,32.087088 -0.42403,0.927901 -0.77545,1.863901 -0.78096,2.08 -0.005,0.216102 -0.36419,1.112912 -0.79705,1.992912 -0.4329,0.88 -0.78839,1.843501 -0.79002,2.141114 0,0.297612 -0.13097,0.620265 -0.28749,0.717001 -0.15654,0.09674 -1.23068,2.589235 -2.387,5.538887 -6.64724,16.956262 -8.07332,20.48431 -8.49792,21.023734 -0.14692,0.186595 -0.4474,0.915264 -0.66778,1.619264 -0.22038,0.704 -0.66771,1.784 -0.99408,2.4 -0.32637,0.616 -0.8128,1.732 -1.08102,2.48 -1.15712,3.227213 -1.51956,4.153238 -2.10608,5.38103 -0.34186,0.715568 -0.62154,1.425799 -0.62154,1.578292 0,0.32343 -3.59507,9.318857 -5.30771,13.280677 -0.64669,1.496 -1.45597,3.50326 -1.79834,4.46059 -0.3424,0.95732 -0.82761,2.03336 -1.07824,2.3912 -0.25065,0.35784 -0.45571,0.92297 -0.45571,1.25584 0,0.33288 -0.28458,1.12884 -0.63238,1.7688 -0.34778,0.63996 -0.83392,1.73957 -1.08026,2.44357 -0.24634,0.704 -1.39434,3.61132 -2.5511,6.46071 -3.18877,7.85476 -3.44964,10.14561 -1.41872,12.45872 1.3086,1.49042 3.919,2.68057 5.87939,2.68057 3.26857,0 7.91293,-1.97354 12.44307,-5.28747 4.74285,-3.46951 7.60333,-6.65966 10.14512,-11.31429 0.70486,-1.29076 2.04013,-1.39431 2.49664,-0.19362 0.16826,0.44254 0.57414,1.19854 0.90202,1.68 2.38524,3.50275 2.60131,4.04888 2.20227,5.56668 -0.24525,0.93269 -3.14371,6.17003 -4.39811,7.94707 -3.5841,5.07729 -11.11117,12.53013 -16.42346,16.26147 -4.17008,2.92904 -12.41549,6.56727 -18.28448,8.0679 -3.79325,0.96989 -10.91715,1.24311 -13.76,0.52774 -4.24454,-1.06809 -5.59846,-1.54152 -7.61664,-2.66324 -4.42813,-2.46122 -7.19174,-5.75286 -8.76144,-10.43542 -0.78166,-2.33175 -0.88496,-3.11811 -0.89293,-6.79682 -0.0109,-5.06652 0.71539,-8.48623 3.19447,-15.04 0.46604,-1.232 1.05664,-2.816 1.31244,-3.52 0.25584,-0.704 0.67268,-1.712 0.92634,-2.24 0.63414,-1.31994 5.56928,-13.67754 6.31811,-15.82059 0.33453,-0.95732 0.81331,-2.03336 1.06394,-2.3912 0.25065,-0.35784 0.45702,-0.87057 0.45862,-1.13941 0.003,-0.26884 0.35712,-1.2088 0.79002,-2.0888 0.43286,-0.879999 0.79245,-1.815999 0.79904,-2.079999 0.007,-0.264 0.24537,-0.912 0.53065,-1.44 0.28528,-0.528 0.77594,-1.608 1.09037,-2.4 0.31447,-0.792 1.01616,-2.484 1.55936,-3.76 2.15533,-5.062954 2.99683,-7.127136 4.53315,-11.12 0.88036,-2.288 1.73485,-4.448 1.89892,-4.8 0.16403,-0.352 0.50672,-1.216 0.76153,-1.92 1.26538,-3.496195 2.06887,-5.528966 2.52976,-6.4 0.94205,-1.780368 2.46429,-5.236957 2.46429,-5.595728 0,-0.19583 0.22189,-0.785133 0.49309,-1.309562 0.27117,-0.524428 0.40445,-1.09688 0.29616,-1.272118 -0.43834,-0.709235 -3.02279,2.061917 -8.87818,9.519558 -3.38307,4.308832 -7.41584,9.441552 -8.96163,11.406045 -1.54582,1.964493 -4.49782,5.716423 -6.56,8.337619 -2.06221,2.6212 -4.46944,5.671511 -5.34944,6.778474 -0.88,1.106963 -3.976,5.053347 -6.88,8.769741 -2.904,3.7164 -6.8377,8.65809 -8.7415,10.98153 -1.90384,2.32344 -4.49012,5.59244 -5.7473,7.26444 -1.25718,1.672 -4.01949,5.13513 -6.1385,7.69585 -2.11897,2.56072 -4.74662,5.75506 -5.83916,7.09853 -2.645,3.25244 -6.88525,6.62145 -10.62887,8.44496 -2.5487,1.24148 -3.39683,1.49491 -5.48051,1.63773 -3.30198,0.22632 -4.39549,-0.0262 -6.65933,-1.53796 -2.42493,-1.6193 -4.00937,-3.96086 -5.21315,-7.7042 -1.20995,-3.76245 -1.52765,-9.39899 -1.19686,-21.23491 0.46249,-16.549458 0.97616,-32.882626 1.36867,-43.519999 0.39059,-10.584275 0.34157,-12.324979 -0.35347,-12.556666 -0.47159,-0.157187 -2.18906,2.790042 -2.79652,4.79889 -0.25318,0.837222 -0.6838,1.841264 -0.95692,2.231203 -0.27312,0.389936 -0.49789,0.928935 -0.49949,1.197776 -0.003,0.268839 -0.35712,1.208797 -0.79002,2.088797 -0.43286,0.88 -0.79155,1.786595 -0.79705,2.014659 -0.005,0.228061 -0.37002,1.090915 -0.81002,1.917453 -0.44,0.826538 -0.8,1.727142 -0.8,2.001341 0,0.274201 -0.13286,0.635347 -0.29523,0.802547 -0.32263,0.332205 -6.32915,15.069142 -6.77568,16.624 -0.15162,0.528 -0.56672,1.530448 -0.9224,2.227661 -0.35568,0.697213 -0.64669,1.473443 -0.64669,1.72495 0,0.251511 -0.27955,1.049063 -0.62122,1.772339 -3.02006,6.393199 -6.30758,14.355499 -10.78252,26.115049 -0.96192,2.52783 -2.17936,5.47616 -2.97306,7.2 -1.82496,3.96362 -3.19789,8.54657 -3.31504,11.0659 -0.0925,1.99 1.04579,4.37039 2.58912,5.41418 1.11104,0.75143 1.43459,0.79992 5.33798,0.79992 4.73658,0 4.94538,0.13305 3.60372,2.29639 -0.84308,1.35942 -2.79252,5.3571 -2.8105,5.76345 -0.0506,1.14335 -4.17165,3.62016 -6.02346,3.62016 -0.33424,0 -1.38108,0.34987 -2.32636,0.77749 -1.9377,0.87658 -6.30765,1.28245 -9.08586,0.84387 z M 369.6,162.78804 c -10.92579,-1.96641 -18.57882,-6.31553 -22.80717,-12.9611 -1.28416,-2.01828 -3.11283,-5.70258 -3.11283,-6.27158 0,-0.2172 -0.2776,-0.93935 -0.61686,-1.60477 -1.14448,-2.24464 -1.60637,-8.96714 -0.97418,-14.17824 0.97709,-8.05357 6.9169,-20.19499 12.35664,-25.25787 3.83459,-3.568933 7.57939,-5.889121 11.72826,-7.266507 2.2399,-0.743632 3.16739,-0.872864 6.30614,-0.878682 3.33091,-0.0062 3.85712,0.07509 5.54714,0.856714 2.32038,1.073142 3.60364,2.136768 4.90396,4.064634 2.02311,2.999441 2.68884,7.010871 1.8881,11.377001 -0.67491,3.6801 -0.93798,4.48796 -2.62611,8.0649 -0.76621,1.6235 -1.39309,3.01918 -1.39309,3.10152 0,0.0823 -0.60627,1.13003 -1.34726,2.3282 -3.37136,5.45138 -6.4648,8.87496 -10.81936,11.97407 -2.83351,2.01657 -4.53556,2.83745 -7.3392,3.53957 -2.67498,0.6699 -3.85418,1.30757 -3.85418,2.0842 0,0.66878 1.7335,3.4578 3.01523,4.85119 2.4096,2.61951 6.17914,4.32667 10.27888,4.65517 7.71658,0.61829 14.07629,-3.17362 18.93911,-11.29227 1.15747,-1.93242 1.79171,-3.2833 3.92198,-8.35345 1.06701,-2.53956 4.48922,-10.3442 5.3,-12.08709 0.43165,-0.9279 0.78611,-1.8639 0.78771,-2.08 0.003,-0.2161 0.35712,-1.11291 0.79002,-1.99291 0.43286,-0.88 0.79155,-1.78931 0.79705,-2.02068 0.005,-0.23137 0.28983,-1.09537 0.63184,-1.92 0.34202,-0.82463 1.22506,-3.08332 1.96231,-5.01932 0.73728,-1.936 1.60944,-4.1241 1.93817,-4.86244 0.32874,-0.73835 0.5977,-1.46048 0.5977,-1.60474 0,-0.144265 0.26784,-0.764163 0.5952,-1.377558 0.32739,-0.613392 0.70467,-1.475261 0.83843,-1.915261 0.24083,-0.792166 1.40935,-3.439453 2.90967,-6.591971 0.4272,-0.897587 0.7767,-1.789965 0.7767,-1.983069 0,-0.193101 0.36,-1.028163 0.8,-1.855686 0.44,-0.827527 0.8,-1.712928 0.8,-1.967562 0,-0.25463 0.21235,-0.845184 0.47194,-1.312339 0.49264,-0.886656 3.64739,-8.639027 4.64294,-11.409373 0.82214,-2.287786 1.87126,-4.916195 2.55453,-6.4 3.42451,-7.436826 6.03219,-13.64057 8.00326,-19.04 1.65946,-4.545744 3.96227,-10.302922 6.39981,-16 0.56477,-1.32 1.30992,-3.107649 1.65587,-3.972553 0.34592,-0.864904 0.83658,-1.868945 1.09031,-2.231202 0.25372,-0.362257 0.46188,-0.878608 0.46256,-1.147447 0,-0.268839 0.43209,-1.352798 0.95878,-2.408798 1.06205,-2.12943 1.22659,-3.50923 0.45382,-3.805764 -0.2784,-0.10683 -4.8504,-0.196202 -10.16,-0.198606 -5.3096,-0.0024 -9.97305,-0.08995 -10.36323,-0.19455 -1.04669,-0.280604 -1.23824,-1.310046 -0.44374,-2.384664 0.37024,-0.500776 0.67315,-1.01992 0.67315,-1.153654 0,-0.548634 4.30691,-8.9326573 4.77411,-9.2934883 0.39213,-0.302871 7.88093,-0.374823 33.30589,-0.32 l 32.8,0.07073 0.0993,0.697654 c 0.0546,0.38371 -0.26157,1.24771 -0.70266,1.92 -0.44105,0.67229 -1.78448,3.163444 -2.98534,5.5358973 -1.50477,2.972877 -2.43015,4.438412 -2.97735,4.715283 -0.54899,0.277775 -2.58499,0.403187 -6.59852,0.406449 -5.0513,0.0041 -5.8928,0.07739 -6.48464,0.564717 -0.60599,0.498967 -1.41108,2.345398 -2.75572,6.32 -0.23817,0.704 -0.7886,2.216 -1.22316,3.36 -0.4346,1.144 -0.96951,2.584 -1.18868,3.2 -0.2192,0.616 -0.73708,1.930007 -1.15091,2.920016 -0.41379,0.990006 -0.75235,1.94584 -0.75235,2.12407 0,0.178234 -0.44266,1.312228 -0.98368,2.519988 -2.66477,5.948825 -4.4513,10.514233 -6.8073,17.395926 -0.81344,2.376 -1.92454,5.472 -2.46912,6.88 -0.54457,1.408 -1.28009,3.352 -1.63446,4.32 -0.35437,0.968 -0.77584,1.91969 -0.93661,2.114864 -0.16073,0.195174 -0.49513,0.987174 -0.74307,1.76 -0.24797,0.772826 -0.91357,2.485136 -1.47917,3.805136 -1.62931,3.80264 -2.47261,5.969546 -6.22659,16 -1.02099,2.728 -2.2097,5.896 -2.6416,7.04 -0.43187,1.144 -1.04394,2.81511 -1.36013,3.713585 -0.31619,0.89846 -0.73008,1.90646 -0.91981,2.23999 -0.18969,0.33353 -0.72268,1.54242 -1.18441,2.68642 -0.46173,1.144 -1.16871,2.872 -1.57111,3.84 -3.02614,7.27979 -3.05584,7.35684 -6.46944,16.79261 -0.72192,1.99556 -3.01478,6.46722 -4.84419,9.44739 -7.62569,12.42262 -14.63219,18.85204 -25.16931,23.09622 -3.81338,1.53596 -7.82115,2.82287 -8.80576,2.82756 -0.43683,0.002 -1.94624,0.30359 -3.35424,0.67003 -2.09578,0.54543 -3.74957,0.6854 -9.12,0.77186 -3.608,0.0581 -6.92,0.0408 -7.36,-0.0384 z"
     id="path3853"
     inkscape:connector-curvature="0" />
</svg>
